<?xml version="1.0" encoding="UTF-8"?>
<svg id="Ebene_2" data-name="Ebene 2" xmlns="http://www.w3.org/2000/svg" viewBox="0 0 92.23 76.22">
  <defs>
    <style>
      .cls-1 {
        fill: #7b7e80;
      }

      .cls-2 {
        fill: none;
      }

      .cls-3 {
        fill: #787a7c;
      }

      .cls-4 {
        fill: #0b4f3b;
      }

      .cls-5 {
        fill: #7d8082;
      }
    </style>
  </defs>
  <g id="Ebene_1-2" data-name="Ebene 1">
    <g>
      <path class="cls-3" d="M0,34.47c29.05-5.02,58.09-10.03,87.13-15.04.24.76.31,55.3.08,56.79H0c0-13.9,0-27.78,0-41.74ZM38.89,59.91c-1.59-2.74-3.14-5.4-4.74-8.15,1.5-.3,2.58-.93,3.42-1.87,1.27-1.43,1.54-3.09,1.19-4.8-.47-2.28-2.8-4.14-5.13-4.2-2.72-.07-5.43-.02-8.14-.05-.15,0-.29.08-.47.14v18.93c.95.03,1.84.11,2.82-.08v-8.04h3.48c.81,1.36,1.63,2.72,2.43,4.09.8,1.36,1.58,2.73,2.33,4.03.99,0,1.83,0,2.81,0ZM18.41,46.34c-.24-3.63-4.68-6.26-8.63-5.23-2.88.75-4.98,3.15-5.02,5.8-.04,2.32,0,4.65-.02,6.97,0,.79.21,1.53.54,2.25,1.08,2.4,4,3.99,6.96,3.81,2.84-.18,5.6-2.27,6.17-4.75.46-2.01.16-4.05.22-6.06-1.33-.18-5.97-.15-6.9.03-.02.85-.14,1.71.07,2.56,1.38.12,2.69-.08,4.02.13,0,.67,0,1.26,0,1.86,0,.77-.29,1.45-.75,2.08-.9,1.21-2.67,1.85-4.15,1.53-1.81-.39-3.21-1.62-3.28-3.09-.13-2.53-.16-5.07,0-7.6.1-1.45,1.12-2.46,2.68-2.95,1.51-.47,2.9-.23,4.11.75.66.54,1.04,1.21,1.39,1.92.88,0,1.71,0,2.61,0ZM52.24,40.96c-2.31,6.33-4.59,12.61-6.92,18.99,1.05-.04,1.92.06,2.79-.07.64-1.3.85-2.72,1.58-3.94h8c.68,1.29.88,2.7,1.6,4.01.45,0,.89.02,1.32,0,.42-.02.86.1,1.33-.17-2.29-6.28-4.56-12.54-6.85-18.81-.96,0-1.83,0-2.85,0ZM68.54,40.98c-.23.38-.13.74-.13,1.08,0,3.69,0,7.39-.02,11.08,0,.67.08,1.33.23,1.99.58,2.59,3.49,4.72,6.47,4.82,4.15.14,7.24-3.1,7.21-6.11-.04-4.11,0-8.23-.01-12.35,0-.17.04-.36-.17-.52h-2.54v1.08c0,3.59,0,7.18,0,10.77,0,.57-.06,1.13-.19,1.67-.56,2.2-3.55,3.89-6.27,2.26-1.28-.77-1.9-1.86-1.9-3.22,0-3.83,0-7.67-.01-11.5,0-.34.11-.7-.13-1.05-.86,0-1.71,0-2.55,0ZM13.91,72.38v-5.14c.08-.02.16-.03.23-.05,1.03,1.8,2.07,3.6,3.08,5.35.45.07.79.15,1.13-.07v-7.56c-.39-.15-.71-.17-1.14.05v5.23c-.05,0-.11.01-.16.02-1.04-1.81-2.07-3.61-3.09-5.38-.45-.01-.81-.13-1.12.1-.18,1.55-.13,6.8.06,7.54.12.14.29.15.45.14.15,0,.33.03.56-.23ZM38.25,72.51v-7.63c-.38-.09-.69-.13-1.08.06v5.26c-.06.01-.12.02-.18.04-1.04-1.8-2.07-3.61-3.1-5.41-.41,0-.76-.1-1.1.07-.22,1.32-.16,6.93.09,7.64.3.09.61.15.95-.12v-5.17c.07-.02.15-.05.22-.07,1.03,1.79,2.07,3.59,3.1,5.39.39.04.73.12,1.1-.05ZM73.22,70.01c-.08.01-.15.03-.23.04-1-1.74-2-3.48-3.01-5.25-.4.05-.76-.09-1.09.12v7.66c.38,0,.71.13,1.16-.15v-5.17c.06,0,.11,0,.17-.01,1.02,1.78,2.04,3.56,3.04,5.31.42.07.77.15,1.06-.08v-7.59c-.4-.09-.73-.18-1.1.12,0,1.64,0,3.32,0,5ZM42,69.34c1.15-.2,2.23.09,3.32-.19-.1-.37.15-.73-.26-1.11h-3.04v-2.13h4.3c.17-.42.23-.75-.02-1.05h-5.43v7.7h5.5c.12-.4.19-.73-.13-1.09-1.37-.16-2.8.06-4.23-.13,0-.69,0-1.31,0-2.01ZM60.81,69.33c.29-.14.47-.21.62-.31,1.02-.63,1.44-1.63,1.11-2.69-.23-.73-1.04-1.47-1.82-1.5-1.18-.04-2.37-.01-3.59-.01v7.78c.41-.03.77.13,1.06-.16.12-1.05-.1-2.1.13-3.12.46-.07.85-.1,1.3.02.62,1.06,1.25,2.15,1.91,3.3.34-.11.7.15,1.01-.21-.56-1.01-1.13-2.01-1.74-3.1ZM9.02,68.04h-3.05v-2.15h4.25c.06-.42.18-.76-.08-1.05h-5.33v7.71h5.39c.11-.39.16-.73-.07-1.15h-4.17v-2.16h3.18c.13-.42.17-.73-.11-1.21ZM54.35,72.57c.14-.4.17-.73-.06-1.15h-4.16v-2.1c1.09-.13,2.16.06,3.21-.11.09-.4.19-.73-.2-1.14h-3v-2.15h4.3c-.04-.42.15-.75-.19-1.1-.85,0-1.72-.02-2.6,0-.9.03-1.81-.13-2.68.1v7.66c1.8,0,3.54,0,5.38,0ZM82.47,66.81c-.07-.16-.11-.29-.18-.42-.65-1.25-1.75-1.79-3.16-1.56-1.23.2-2.14,1.27-2.16,2.57-.01.92-.03,1.83,0,2.74.05,1.35,1.18,2.4,2.59,2.46,1.38.06,2.73-.92,2.9-2.19.1-.75.02-1.52.02-2.36-.98.08-1.85-.11-2.76.15-.02.35-.18.68.08.99.48.17.98-.04,1.42.14.23,1.41-.09,1.87-1.57,2.21q-.89-.3-1.47-1.01c-.13-.88-.04-1.8-.06-2.71,0-.21-.01-.42.02-.63.09-.67.53-1.17,1.2-1.3.69-.13,1.26.06,1.69.56.17.19.22.45.48.59.32.03.64.09.96-.23ZM26.51,68.15c-.98-.11-1.84-.16-2.75.04,0,.36-.17.7.15,1.07.21,0,.44-.01.68,0,.23.01.48-.06.69.08.23,1.41-.06,1.82-1.58,2.2-1.24-.35-1.61-.77-1.64-1.88-.02-.67,0-1.33,0-2,0-.75.3-1.37,1.09-1.74.4-.09.79-.1,1.07-.02.66.25.9.72,1.2,1.09.35.08.65.16.92-.08-.12-1.11-1.06-1.99-2.23-2.1-1.44-.14-2.69.58-3.02,1.87-.33,1.27-.29,2.58-.02,3.86.25,1.21,1.35,2.04,2.63,2.06,1.25.02,2.3-.71,2.71-1.86.29-.82.15-1.66.12-2.59ZM29.1,64.89v7.68c.39.05.7.12,1.03-.07v-7.6c-.36-.14-.67-.13-1.03-.01ZM65.26,64.92v7.65c.35,0,.65.15.92-.12v-7.6c-.31-.02-.57-.09-.92.07Z"/>
      <path class="cls-4" d="M4.86,30.3V0h87.37v15.21c-29.08,5.02-58.18,10.04-87.37,15.08Z"/>
      <path class="cls-2" d="M38.89,59.91h-2.81c-.75-1.3-1.53-2.67-2.33-4.03-.8-1.37-1.62-2.73-2.43-4.09h-3.48v8.04c-.98.2-1.87.11-2.82.08v-18.93c.17-.05.32-.14.47-.14,2.71.04,5.43-.02,8.14.05,2.33.06,4.66,1.92,5.13,4.2.35,1.71.08,3.36-1.19,4.8-.84.94-1.91,1.57-3.42,1.87,1.6,2.75,3.14,5.41,4.73,8.15ZM27.83,49c2.01,0,3.92,0,5.83,0,.5,0,.91-.22,1.3-.48.95-.66,1.12-1.55,1.09-2.55-.03-1.16-1.42-2.39-2.74-2.33-1.55.08-3.11.01-4.67.02-.26,0-.56-.09-.8.18,0,1.65,0,3.33,0,5.15Z"/>
      <path class="cls-2" d="M18.41,46.34h-2.61c-.34-.71-.73-1.39-1.39-1.92-1.21-.98-2.6-1.22-4.11-.75-1.56.49-2.58,1.5-2.68,2.95-.17,2.53-.14,5.07,0,7.6.08,1.46,1.48,2.7,3.28,3.09,1.48.32,3.26-.32,4.15-1.53.46-.63.76-1.31.75-2.08,0-.6,0-1.2,0-1.86-1.32-.2-2.64,0-4.02-.13-.2-.84-.08-1.71-.07-2.56.94-.18,5.57-.2,6.9-.03-.06,2.01.24,4.05-.22,6.06-.57,2.48-3.33,4.57-6.17,4.75-2.95.19-5.88-1.4-6.96-3.81-.32-.72-.54-1.46-.54-2.25.02-2.32-.02-4.65.02-6.97.04-2.65,2.15-5.05,5.02-5.8,3.95-1.03,8.39,1.6,8.64,5.23Z"/>
      <path class="cls-2" d="M52.24,40.96h2.85c2.28,6.27,4.56,12.53,6.85,18.81-.47.27-.91.15-1.33.17-.44.02-.87,0-1.32,0-.71-1.31-.91-2.72-1.6-4.01h-8c-.73,1.23-.94,2.64-1.58,3.94-.87.14-1.74.04-2.79.07,2.32-6.38,4.6-12.66,6.91-18.99ZM56.72,53.11c-1-2.76-1.97-5.43-2.94-8.11-1.15,2.68-2.3,5.29-3.1,8.11h6.04Z"/>
      <path class="cls-2" d="M68.54,40.98h2.55c.24.35.13.71.13,1.05.01,3.83,0,7.67,0,11.5,0,1.36.62,2.45,1.9,3.22,2.72,1.63,5.71-.06,6.27-2.26.14-.55.2-1.1.19-1.67-.02-3.59,0-7.18,0-10.77v-1.08h2.54c.2.16.17.34.17.51,0,4.12-.03,8.23.01,12.35.03,3.01-3.06,6.25-7.21,6.11-2.98-.1-5.89-2.23-6.47-4.82-.15-.65-.23-1.31-.23-1.99.02-3.69,0-7.39.02-11.08,0-.34-.1-.7.13-1.08Z"/>
      <path class="cls-2" d="M13.91,72.38c-.24.26-.41.23-.56.23-.16,0-.32,0-.45-.14-.19-.73-.24-5.99-.06-7.54.31-.22.67-.11,1.12-.1,1.02,1.77,2.05,3.57,3.09,5.38.05,0,.11-.01.16-.02v-5.23c.43-.22.76-.2,1.14-.05v7.56c-.34.22-.69.14-1.13.07-1.01-1.76-2.04-3.55-3.08-5.35-.08.02-.15.03-.23.05,0,1.76,0,3.51,0,5.13Z"/>
      <path class="cls-2" d="M38.25,72.51c-.37.17-.71.1-1.1.05-1.04-1.8-2.07-3.59-3.1-5.39-.07.02-.15.05-.22.07v5.17c-.35.27-.65.21-.95.12-.25-.71-.32-6.32-.09-7.64.33-.18.69-.08,1.1-.07,1.04,1.8,2.07,3.61,3.1,5.41.06-.01.12-.02.18-.04v-5.26c.4-.19.7-.15,1.08-.06,0,2.53,0,5.08,0,7.63Z"/>
      <path class="cls-2" d="M73.22,70.01v-5c.37-.31.7-.21,1.1-.12v7.59c-.3.23-.65.14-1.06.08-1-1.75-2.02-3.53-3.04-5.31-.06,0-.11,0-.17.01v5.17c-.45.27-.78.15-1.16.15v-7.66c.33-.21.69-.07,1.09-.12,1.01,1.77,2.01,3.51,3.01,5.25.07-.01.15-.02.22-.04Z"/>
      <path class="cls-2" d="M42,69.34v2.01c1.43.19,2.86-.03,4.23.13.31.35.25.69.13,1.09h-5.5v-7.7h5.43c.26.31.2.63.02,1.05h-4.3v2.13h3.04c.41.38.16.74.26,1.11-1.09.28-2.17,0-3.32.19Z"/>
      <path class="cls-2" d="M60.81,69.33c.61,1.09,1.17,2.09,1.74,3.1-.31.35-.67.09-1.01.21-.67-1.15-1.3-2.24-1.91-3.3-.45-.11-.84-.09-1.3-.02-.23,1.02,0,2.08-.13,3.12-.29.29-.65.13-1.06.16v-7.78c1.21,0,2.4-.03,3.59.01.77.03,1.59.76,1.82,1.5.32,1.06-.09,2.06-1.11,2.69-.16.1-.34.17-.62.31ZM60.72,65.95h-2.45c-.02.76-.15,1.46.1,2.26,1.02-.19,2.12.32,2.99-.58.14-.65.24-1.3-.64-1.68Z"/>
      <path class="cls-2" d="M9.02,68.04c.28.48.25.78.11,1.21h-3.18v2.16h4.17c.23.42.19.76.07,1.15h-5.39v-7.71h5.33c.26.29.15.62.08,1.04h-4.25v2.15c1.04,0,2.05,0,3.05,0Z"/>
      <path class="cls-2" d="M54.35,72.57h-5.38v-7.66c.87-.23,1.78-.07,2.68-.1.87-.03,1.75,0,2.6,0,.34.35.15.68.19,1.1h-4.3v2.15h3c.39.41.29.75.2,1.14-1.05.17-2.12-.02-3.21.11v2.1h4.16c.22.43.19.76.06,1.15Z"/>
      <path class="cls-2" d="M82.47,66.81c-.32.32-.64.27-.96.23-.26-.14-.31-.4-.48-.59-.43-.5-1-.69-1.69-.56-.67.13-1.11.62-1.2,1.3-.02.21-.02.42-.02.63.02.91-.07,1.83.06,2.71q.58.72,1.47,1.01c1.47-.35,1.8-.8,1.57-2.21-.44-.19-.94.02-1.42-.14-.26-.31-.1-.64-.08-.99.91-.26,1.77-.07,2.76-.15,0,.85.08,1.61-.02,2.36-.17,1.27-1.52,2.25-2.9,2.19-1.41-.06-2.54-1.11-2.59-2.46-.03-.91-.02-1.83,0-2.74.02-1.3.93-2.37,2.16-2.57,1.41-.23,2.51.31,3.16,1.56.07.13.12.26.18.42Z"/>
      <path class="cls-2" d="M26.51,68.15c.02.93.16,1.77-.12,2.6-.4,1.15-1.46,1.89-2.71,1.86-1.27-.02-2.38-.85-2.63-2.06-.26-1.28-.3-2.59.02-3.86.33-1.29,1.59-2.01,3.02-1.87,1.17.11,2.11,1,2.23,2.1-.26.24-.57.16-.92.08-.31-.37-.54-.84-1.2-1.09-.27-.08-.66-.07-1.07.02-.79.37-1.08.98-1.09,1.74,0,.67-.01,1.33,0,2,.02,1.1.4,1.52,1.64,1.88,1.52-.38,1.8-.79,1.58-2.2-.21-.14-.46-.07-.69-.08-.23-.01-.47,0-.68,0-.32-.37-.14-.71-.15-1.07.91-.2,1.76-.15,2.75-.04Z"/>
      <path class="cls-2" d="M29.1,64.89c.36-.11.66-.12,1.03.01v7.6c-.32.19-.63.11-1.03.07v-7.68Z"/>
      <path class="cls-2" d="M65.26,64.92c.35-.16.61-.09.92-.07v7.6c-.27.27-.57.12-.92.12v-7.65Z"/>
      <path class="cls-3" d="M27.83,49v-5.15c.24-.27.54-.18.8-.18,1.56,0,3.12.06,4.67-.02,1.32-.07,2.71,1.17,2.74,2.33.03,1-.14,1.89-1.09,2.55-.38.27-.79.48-1.3.48-1.91,0-3.82,0-5.83,0Z"/>
      <path class="cls-1" d="M56.72,53.11h-6.03c.8-2.82,1.95-5.43,3.1-8.11.97,2.67,1.93,5.35,2.93,8.11Z"/>
      <path class="cls-5" d="M60.72,65.95c.88.38.78,1.03.64,1.68-.86.9-1.96.39-2.99.58-.25-.79-.12-1.5-.1-2.26.87,0,1.65,0,2.45,0Z"/>
    </g>
  </g>
</svg>